<svg id="レイヤー_1" data-name="レイヤー 1" xmlns="http://www.w3.org/2000/svg" viewBox="0 0 170.08 56.69"><path d="M17.47,7c4.88,0,11.57.59,16.64,5.4,4.62,4.35,5.27,9.68,5.27,14.17,0,5.78-1.11,11.89-6.11,16.9C27,49.69,18.19,50.34,11.1,50.34H3L8.37,7Zm-7,37.12h2.86c4.36,0,11.31-.26,15.8-5.53,1.17-1.36,3.64-4.87,3.64-11.11,0-4.75-1.5-8.26-3.58-10.4-3.57-3.64-9-3.84-12.09-3.84H14.22Z"/><path d="M80,13.22H62.71l-1.3,11H78.18l-.78,6.24H60.63L58.94,44.1H76.23l-.78,6.24H51.53L56.86,7H80.78Z"/><path d="M103.6,7c3.38,0,7.8.26,10.92,2.67a11.18,11.18,0,0,1,4.16,9.16,12.55,12.55,0,0,1-3.77,9.36,15.59,15.59,0,0,1-7.41,3.64l11.24,18.53h-8L100.54,32.59H99.37L97.16,50.34H90.53L95.86,7ZM100,26.87h2.08c2.34,0,5.53-.45,7.54-2.08a7.22,7.22,0,0,0,2.67-5.59,5.68,5.68,0,0,0-2.41-4.87c-1.17-.78-3.05-1.24-5.91-1.24h-2.28Z"/><path d="M168.08,17.12a17.48,17.48,0,0,0-23.66-.39,19.64,19.64,0,0,0-5.46,14A14.44,14.44,0,0,0,142.73,41c2.47,2.66,5.78,4.09,10.2,4.09,5.79,0,10-3,12.29-5l-.91,7.86a23.22,23.22,0,0,1-12,3.25c-5.2,0-9.95-1.1-14.24-5.39-3.77-3.77-5.78-8.58-5.78-15,0-8,3-13.84,7.15-17.94C144.22,8.22,150,6.2,156.64,6.2A26.78,26.78,0,0,1,169,9.32Z"/></svg>