<svg viewBox="0 0 141.73 21.48" xmlns="http://www.w3.org/2000/svg"><g fill="#03774a" transform="translate(-1.42 -.6)"><path d="m6.92 1-5.5 20.67h8.58l1.76-7.05h11.2l-1.96 7.05h8.32l5.55-20.67h-8.42l-1.76 7h-11.2l1.92-7zm40 .09h-8.2l-5.54 20.58h8.32l3.68-13.77h-7.59zm6.73 0-5.33 20.58h8.32l2.15-7.78 7.14 7.84h10.07l-9.75-10.73 12.75-9.92h-10.32l-8.13 6.28 1.7-6.25zm53.14 0-5.34 20.56h8.32l2.14-7.82 7.14 7.85h10.06l-9.72-10.68 12.71-10h-10.27l-8.13 6.3 1.69-6.24zm27.7 0h8.64l-5.44 20.62h-8.58z"/><path d="m98.87.6h-11.43s-6.3-.32-8.74 5.67l-.54 1.38-.9 3-.8 3s-2.56 9.06 5.44 8.48h10.6a9.89 9.89 0 0 0 8.71-7.91l1.38-4.8s2.14-8-3.72-8.74zm-4 9.73-.57 2.18a4.17 4.17 0 0 1 -3.59 3.59h-4.32c-3.3.25-2.24-3.84-2.24-3.84l.32-1.35.38-1.34.22-.64a3.74 3.74 0 0 1 3.59-2.57h4.71c2.43.32 1.53 4 1.53 4z"/></g></svg>