<svg id="レイヤー_1" data-name="レイヤー 1" xmlns="http://www.w3.org/2000/svg" viewBox="0 0 141.73 21.48"><defs><style>.cls-1{fill:#03774a;}</style></defs><path class="cls-1" d="M6.92,1,1.42,21.67H10l1.76-7.05h11.2L21,21.67h8.32L34.87,1H26.45L24.69,8H13.49l1.92-7Zm40,.09H38.72L33.18,21.67H41.5L45.18,7.9H37.59Zm6.73,0L48.32,21.67h8.32l2.15-7.78,7.14,7.84H76L66.25,11,79,1.08H68.68L60.55,7.36l1.7-6.25Zm53.14,0-5.34,20.56h8.32l2.14-7.82,7.14,7.85h10.06L119.39,11,132.1,1H121.83l-8.13,6.3,1.69-6.24Zm27.7,0h8.64l-5.44,20.62h-8.58Z" transform="translate(-1.42 -0.6)"/><path class="cls-1" d="M98.87.6H87.44S81.14.28,78.7,6.27l-.54,1.38-.9,3-.8,3s-2.56,9.06,5.44,8.48H92.5a9.89,9.89,0,0,0,8.71-7.91l1.38-4.8s2.14-8-3.72-8.74Zm-4,9.73-.57,2.18a4.17,4.17,0,0,1-3.59,3.59H86.39c-3.3.25-2.24-3.84-2.24-3.84l.32-1.35.38-1.34.22-.64a3.74,3.74,0,0,1,3.59-2.57h4.71c2.43.32,1.53,4,1.53,4Z" transform="translate(-1.42 -0.6)"/></svg>